<?xml version="1.0" encoding="UTF-8" standalone="no"?>
<svg
   xmlns:dc="http://purl.org/dc/elements/1.1/"
   xmlns:cc="http://creativecommons.org/ns#"
   xmlns:rdf="http://www.w3.org/1999/02/22-rdf-syntax-ns#"
   xmlns:svg="http://www.w3.org/2000/svg"
   xmlns="http://www.w3.org/2000/svg"
   version="1.1"
   id="svg2"
   viewBox="0 0 89.886297 39.811973"
   height="11.235824mm"
   width="25.36791mm">
  <defs
     id="defs4" />
  <metadata
     id="metadata7">
    <rdf:RDF>
      <cc:Work
         rdf:about="">
        <dc:format>image/svg+xml</dc:format>
        <dc:type
           rdf:resource="http://purl.org/dc/dcmitype/StillImage" />
        <dc:title></dc:title>
      </cc:Work>
    </rdf:RDF>
  </metadata>
  <g
     transform="translate(-3.0804741,-1.8532354)"
     id="layer1">
    <path
       id="path3358"
       d="m 24.185713,33.54782 c 0,-0.595794 1.34358,-1.420479 2.98573,-1.832633 4.46216,-1.119931 10.76427,-8.915489 10.76427,-13.315145 0,-4.54855 1.60721,-4.785233 3.54936,-0.522689 1.94047,4.258878 1.82752,6.971846 -0.4241,10.186488 -1.03111,1.472114 -1.58055,3.443231 -1.22098,4.380261 0.50543,1.317112 -1.19643,1.758523 -7.50026,1.945336 -4.48471,0.132904 -8.15402,-0.245824 -8.15402,-0.841618 z M 5.4548534,31.389773 c 0.0105,-0.58918 0.53083,-1.879907 1.15623,-2.868284 0.77224,-1.220446 0.36502,-2.77857 -1.26914,-4.856073 -4.59406995,-5.840417 -1.91158,-14.642262 5.5401196,-18.178323 10.67022,-5.06335398 23.30365,0.944142 23.30365,11.081444 0,7.723818 -5.95314,12.307515 -17.5,13.474356 -3.78125,0.382105 -7.8593796,1.082498 -9.0624996,1.556426 -1.20313,0.473929 -2.17889,0.379634 -2.16836,-0.209546 z"
       style="fill:#090909" />
    <path
       id="path3360"
       d="m 64.621378,39.60881 c -2.28275,-1.124899 -5.65775,-4.021429 -7.5,-6.436735 -4.38537,-5.749516 -4.77181,-16.872758 -0.77229,-22.229671 8.74664,-11.71518237 24.06558,-12.1743294 32.60599,-0.9772854 12.344992,16.1851264 -6.08468,38.6364524 -24.3337,29.6436914 z m 12.63056,-12.623773 5.88611,-5.975967 -2.8081,-2.314269 c -1.54446,-1.272847 -4.33464,-3.731916 -6.2004,-5.464596 -2.87181,-2.66696 -3.69517,-2.898977 -5.36618,-1.512158 -1.7611,1.461577 -1.55552,2.069808 1.90699,5.642217 l 3.88088,4.004046 -3.95444,3.954442 c -3.24188,3.241872 -3.67869,4.286705 -2.42414,5.798348 2.19627,2.646347 2.57059,2.475994 9.07928,-4.132063 z"
       style="fill:#000000" />
  </g>
</svg>
