<?xml version="1.0" encoding="UTF-8" standalone="no"?>
<svg
   xmlns:dc="http://purl.org/dc/elements/1.1/"
   xmlns:cc="http://creativecommons.org/ns#"
   xmlns:rdf="http://www.w3.org/1999/02/22-rdf-syntax-ns#"
   xmlns:svg="http://www.w3.org/2000/svg"
   xmlns="http://www.w3.org/2000/svg"
   version="1.1"
   id="svg2"
   viewBox="0 0 39.207212 29.664708"
   height="8.3720398mm"
   width="11.065146mm">
  <defs
     id="defs4" />
  <metadata
     id="metadata7">
    <rdf:RDF>
      <cc:Work
         rdf:about="">
        <dc:format>image/svg+xml</dc:format>
        <dc:type
           rdf:resource="http://purl.org/dc/dcmitype/StillImage" />
        <dc:title></dc:title>
      </cc:Work>
    </rdf:RDF>
  </metadata>
  <g
     transform="translate(-10.396341,-7.5298542)"
     id="layer1">
    <g
       transform="translate(-182.76236,-59.314187)"
       id="layer1-4">
      <path
         id="path3347"
         d="m 228.05762,95.578073 c -1.71875,-0.53243 -7.36838,-0.68318 -12.55474,-0.33501 -10.53568,0.70728 -15.25154,-0.88957 -19.83489,-6.71635 -5.05262,-6.42337 -2.21663,-15.53521 6.18793,-19.88137 4.22615,-2.18544 15.21877,-2.44092 19.09638,-0.44383 7.74532,3.98909 11.39635,11.79366 8.49551,18.1603 -1.19049,2.61283 -0.99735,3.72426 1.17806,6.77934 2.72352,3.82485 2.52384,4.01432 -2.56825,2.43692 z m -19.43044,-10.71607 2.95019,-3.1833 3.18331,3.1833 c 1.75082,1.75082 3.92746,3.18331 4.83699,3.18331 3.12356,0 7.20995,-3.88612 7.20995,-6.85659 0,-5.55696 -2.92542,-6.89341 -15.08929,-6.89341 -9.49404,0 -11.53404,0.37333 -13.66071,2.5 -3.3512,3.3512 -3.14895,5.55808 0.79357,8.65927 4.30037,3.38267 6.19849,3.26762 9.77599,-0.59258 z m -7.39118,-4.23032 c -0.39554,-0.63999 -0.14245,-1.52005 0.56242,-1.95568 1.78201,-1.10135 6.45568,0.54013 5.57858,1.95931 -0.92937,1.50375 -5.21095,1.50122 -6.141,-0.004 z m 15.57162,-0.0864 c 0,-0.6875 1.40625,-1.25 3.125,-1.25 1.71875,0 3.125,0.5625 3.125,1.25 0,0.6875 -1.40625,1.25 -3.125,1.25 -1.71875,0 -3.125,-0.5625 -3.125,-1.25 z"
         style="fill:#0e0e0e" />
    </g>
  </g>
</svg>
